<svg width="1001" height="650" viewBox="0 0 1001 650" fill="none" xmlns="http://www.w3.org/2000/svg">
<g filter="url(#filter0_f_148_42)">
<ellipse cx="675.711" cy="525" rx="175" ry="175" transform="rotate(90 675.711 525)" fill="#1C9BB2"/>
</g>
<g filter="url(#filter1_d_148_42)">
<path d="M785.712 800C711.544 800 639.041 778.007 577.373 736.801C515.704 695.596 467.64 637.029 439.257 568.506C410.874 499.984 403.448 424.584 417.917 351.841C432.387 279.098 468.102 212.28 520.547 159.835C572.991 107.39 639.81 71.675 712.553 57.2055C785.296 42.736 860.696 50.1623 929.218 78.5452C997.74 106.928 1056.31 154.993 1097.51 216.661C1138.72 278.33 1160.71 350.832 1160.71 425L1104.46 425C1104.46 361.957 1085.77 300.33 1050.74 247.912C1015.72 195.494 965.936 154.639 907.692 130.513C849.448 106.388 785.358 100.076 723.527 112.375C661.695 124.674 604.899 155.032 560.321 199.61C515.743 244.188 485.385 300.983 473.086 362.815C460.787 424.646 467.099 488.736 491.225 546.98C515.35 605.224 556.205 655.006 608.624 690.031C661.042 725.056 722.669 743.75 785.712 743.75L785.712 800Z" fill="#1C9BB2"/>
</g>
<path d="M410 527.939C404.666 529.369 399.169 526.205 397.873 520.836C380.129 447.308 383.582 370.178 407.939 298.424C433.369 223.51 480.442 157.819 543.207 109.659C605.971 61.498 681.607 33.0305 760.55 27.8564C839.493 22.6822 918.198 41.0335 986.711 80.5897C1055.22 120.146 1110.47 179.131 1145.46 250.084C1180.45 321.038 1193.62 400.775 1183.29 479.21C1172.96 557.646 1139.61 631.258 1087.45 690.738C1037.48 747.709 972.416 789.265 899.866 810.661C894.569 812.224 889.08 809.046 887.651 803.711C886.221 798.376 889.393 792.906 894.688 791.336C963.417 770.968 1025.06 731.548 1072.41 677.551C1121.96 621.045 1153.65 551.114 1163.46 476.6C1173.27 402.086 1160.76 326.336 1127.52 258.93C1094.28 191.524 1041.8 135.489 976.711 97.9103C911.623 60.3318 836.854 42.898 761.858 47.8135C686.862 52.729 615.008 79.7731 555.382 125.526C495.756 171.278 451.036 233.685 426.878 304.853C403.792 372.861 400.473 445.952 417.198 515.658C418.487 521.028 415.335 526.51 410 527.939Z" fill="#1C9BB2" fill-opacity="0.75"/>
<path d="M427.702 220.662C422.62 217.728 420.867 211.221 423.928 206.214C465.838 137.641 526.379 82.2879 598.588 46.6785C673.977 9.50101 758.696 -4.48632 842.034 6.48532C925.372 17.457 1003.59 52.8948 1066.78 108.317C1129.98 163.74 1175.32 236.658 1197.08 317.851C1218.83 399.044 1216.03 484.865 1189.01 564.461C1161.99 644.057 1111.97 713.854 1045.28 765.025C978.597 816.195 898.234 846.442 814.357 851.939C734.018 857.205 653.911 839.539 583.329 801.108C578.175 798.302 576.439 791.791 579.373 786.709C582.307 781.627 588.8 779.899 593.957 782.699C660.897 819.032 736.822 835.726 812.967 830.735C892.651 825.512 968.996 796.778 1032.35 748.166C1095.7 699.554 1143.22 633.247 1168.88 557.631C1194.55 482.014 1197.22 400.484 1176.55 323.351C1155.89 246.218 1112.81 176.946 1052.77 124.294C992.734 71.6425 918.432 37.9766 839.261 27.5535C760.09 17.1305 679.606 30.4184 607.987 65.737C539.548 99.4875 482.141 151.907 442.337 216.843C439.27 221.846 432.783 223.596 427.702 220.662Z" fill="#1C9BB2" fill-opacity="0.15"/>
<path d="M784.065 190L969 554H904.419L784.065 313.29L693.065 501.161H833.968L863.323 554H605L784.065 190Z" fill="url(#paint0_linear_148_42)"/>
<defs>
<filter id="filter0_f_148_42" x="0.711449" y="-150" width="1350" height="1350" filterUnits="userSpaceOnUse" color-interpolation-filters="sRGB">
<feFlood flood-opacity="0" result="BackgroundImageFix"/>
<feBlend mode="normal" in="SourceGraphic" in2="BackgroundImageFix" result="shape"/>
<feGaussianBlur stdDeviation="250" result="effect1_foregroundBlur_148_42"/>
</filter>
<filter id="filter1_d_148_42" x="310.711" y="-50.0002" width="950" height="950" filterUnits="userSpaceOnUse" color-interpolation-filters="sRGB">
<feFlood flood-opacity="0" result="BackgroundImageFix"/>
<feColorMatrix in="SourceAlpha" type="matrix" values="0 0 0 0 0 0 0 0 0 0 0 0 0 0 0 0 0 0 127 0" result="hardAlpha"/>
<feOffset/>
<feGaussianBlur stdDeviation="50"/>
<feComposite in2="hardAlpha" operator="out"/>
<feColorMatrix type="matrix" values="0 0 0 0 0 0 0 0 0 0 0 0 0 0 0 0 0 0 0.5 0"/>
<feBlend mode="normal" in2="BackgroundImageFix" result="effect1_dropShadow_148_42"/>
<feBlend mode="normal" in="SourceGraphic" in2="effect1_dropShadow_148_42" result="shape"/>
</filter>
<linearGradient id="paint0_linear_148_42" x1="605" y1="190" x2="969" y2="554" gradientUnits="userSpaceOnUse">
<stop stop-color="white" stop-opacity="0.3"/>
<stop offset="1" stop-color="white" stop-opacity="0"/>
</linearGradient>
</defs>
</svg>
