<svg width="50" height="264" viewBox="0 0 50 264" fill="none" xmlns="http://www.w3.org/2000/svg">
<path fill-rule="evenodd" clip-rule="evenodd" d="M46.5 0V128.98L6.99038 164.938L6.5 165.384V166.048V248.14C2.79871 248.843 0 252.094 0 256C0 260.418 3.58172 264 8 264C12.4183 264 16 260.418 16 256C16 252.094 13.2013 248.843 9.5 248.14V166.711L49.0096 130.753L49.5 130.306V129.643V0H46.5ZM13 256C13 258.761 10.7614 261 8 261C5.23858 261 3 258.761 3 256C3 253.239 5.23858 251 8 251C10.7614 251 13 253.239 13 256Z" fill="#2FAEE1"/>
</svg>
