<svg width="41" height="159" viewBox="0 0 41 159" fill="none" xmlns="http://www.w3.org/2000/svg">
<path fill-rule="evenodd" clip-rule="evenodd" d="M0.5 0V60.8963V61.5508L0.979789 61.9959L31.7554 90.549V143.096C27.9282 143.694 25 147.005 25 151C25 155.418 28.5817 159 33 159C37.4183 159 41 155.418 41 151C41 147.185 38.3293 143.993 34.7554 143.193V89.8945V89.2401L34.2756 88.7949L3.5 60.2418V0H0.5ZM38 151C38 153.761 35.7614 156 33 156C30.2386 156 28 153.761 28 151C28 148.239 30.2386 146 33 146C35.7614 146 38 148.239 38 151Z" fill="#2FAEE1"/>
</svg>
