<svg width="52" height="250" viewBox="0 0 52 250" fill="none" xmlns="http://www.w3.org/2000/svg">
<path fill-rule="evenodd" clip-rule="evenodd" d="M48.6883 0V169.69L10.3803 234.36C9.62837 234.126 8.82891 234 8 234C3.58172 234 0 237.582 0 242C0 246.418 3.58172 250 8 250C12.4183 250 16 246.418 16 242C16 239.486 14.8408 237.244 13.0278 235.777L51.4789 170.866L51.6883 170.512V170.101V0H48.6883ZM13 242C13 244.761 10.7614 247 8 247C5.23858 247 3 244.761 3 242C3 239.239 5.23858 237 8 237C10.7614 237 13 239.239 13 242Z" fill="#2FAEE1"/>
</svg>
