<svg width="49" height="289" viewBox="0 0 49 289" fill="none" xmlns="http://www.w3.org/2000/svg">
<path fill-rule="evenodd" clip-rule="evenodd" d="M0.5 0V115.5V115.973L0.771152 116.36L39 170.973V273.252C35.5495 274.14 33 277.272 33 281C33 285.418 36.5817 289 41 289C45.4183 289 49 285.418 49 281C49 276.92 45.9463 273.554 42 273.062V170.5V170.027L41.7288 169.64L3.5 115.027V0H0.5ZM41 276C38.2386 276 36 278.239 36 281C36 283.761 38.2386 286 41 286C43.7614 286 46 283.761 46 281C46 278.239 43.7614 276 41 276Z" fill="#2FAEE1"/>
</svg>
