<svg width="50" height="159" viewBox="0 0 50 159" fill="none" xmlns="http://www.w3.org/2000/svg">
<path fill-rule="evenodd" clip-rule="evenodd" d="M0.5 0V60.8963V61.6581L1.1151 62.1075L40.1907 90.6563V143.205C36.6439 144.025 34 147.204 34 151C34 155.418 37.5817 159 42 159C46.4183 159 50 155.418 50 151C50 146.986 47.0443 143.663 43.1907 143.088V89.8945V89.1328L42.5756 88.6834L3.5 60.1345V0H0.5ZM47 151C47 153.761 44.7614 156 42 156C39.2386 156 37 153.761 37 151C37 148.239 39.2386 146 42 146C44.7614 146 47 148.239 47 151Z" fill="#2FAEE1"/>
</svg>
