<svg width="54" height="263" viewBox="0 0 54 263" fill="none" xmlns="http://www.w3.org/2000/svg">
<path fill-rule="evenodd" clip-rule="evenodd" d="M0.5 0V178.5V178.895L0.694836 179.239L40.2025 248.987C38.8377 250.422 38 252.363 38 254.5C38 258.918 41.5817 262.5 46 262.5C50.4183 262.5 54 258.918 54 254.5C54 250.082 50.4183 246.5 46 246.5C44.8059 246.5 43.6729 246.762 42.6553 247.231L3.5 178.105V0H0.5ZM51 254.5C51 257.261 48.7614 259.5 46 259.5C43.2386 259.5 41 257.261 41 254.5C41 251.739 43.2386 249.5 46 249.5C48.7614 249.5 51 251.739 51 254.5Z" fill="#2FAEE1"/>
</svg>
