<svg width="50" height="204" viewBox="0 0 50 204" fill="none" xmlns="http://www.w3.org/2000/svg">
<path fill-rule="evenodd" clip-rule="evenodd" d="M46.5 0V97.9907L7.14526 125.28L6.5 125.727V126.512V188.14C2.79871 188.843 0 192.094 0 196C0 200.418 3.58172 204 8 204C12.4183 204 16 200.418 16 196C16 192.094 13.2013 188.843 9.5 188.14V127.298L48.8547 100.009L49.5 99.5611V98.7759V0L46.5 0ZM13 196C13 198.761 10.7614 201 8 201C5.23858 201 3 198.761 3 196C3 193.239 5.23858 191 8 191C10.7614 191 13 193.239 13 196Z" fill="#2FAEE1"/>
</svg>
