<svg width="54" height="204" viewBox="0 0 54 204" fill="none" xmlns="http://www.w3.org/2000/svg">
<path fill-rule="evenodd" clip-rule="evenodd" d="M0.5 0V136V136.496L0.796223 136.895L40.3703 190.126C38.9066 191.575 38 193.587 38 195.81C38 200.228 41.5817 203.81 46 203.81C50.4183 203.81 54 200.228 54 195.81C54 191.391 50.4183 187.81 46 187.81C44.8861 187.81 43.8253 188.037 42.8617 188.449L3.5 135.504V0H0.5ZM51 195.81C51 198.571 48.7614 200.81 46 200.81C43.2386 200.81 41 198.571 41 195.81C41 193.048 43.2386 190.81 46 190.81C48.7614 190.81 51 193.048 51 195.81Z" fill="#2FAEE1"/>
</svg>
