<?xml version="1.0" standalone="no"?>
<!DOCTYPE svg PUBLIC "-//W3C//DTD SVG 20010904//EN"
 "http://www.w3.org/TR/2001/REC-SVG-20010904/DTD/svg10.dtd">
<svg version="1.0" xmlns="http://www.w3.org/2000/svg"
 width="1440.000000pt" height="900.000000pt" viewBox="0 0 1440.000000 900.000000"
 preserveAspectRatio="xMidYMid meet">
<metadata>
Created by potrace 1.16, written by Peter Selinger 2001-2019
</metadata>
<g transform="translate(0.000000,900.000000) scale(0.100000,-0.100000)"
fill="#000000" stroke="none">
<path d="M0 4500 l0 -4500 7200 0 7200 0 0 4500 0 4500 -7200 0 -7200 0 0
-4500z m10361 3820 c37 -20 19 -90 -23 -90 -16 0 -18 -12 -18 -135 l0 -135 99
0 99 0 4 61 c1 34 0 63 -4 66 -5 2 -8 18 -8 34 0 22 6 32 25 39 33 13 54 3 62
-28 7 -31 -7 -56 -36 -60 -21 -3 -21 -5 -21 -263 0 -289 2 -303 82 -479 l35
-75 19 35 c17 32 19 62 22 376 l3 341 95 94 c62 62 97 90 104 83 6 -6 -22 -41
-85 -104 -95 -94 -95 -95 -95 -145 l0 -50 150 150 c82 82 153 146 157 142 4
-4 -62 -77 -147 -162 l-155 -155 -5 -273 c-6 -325 -8 -332 -115 -409 -104 -76
-148 -165 -199 -408 -21 -98 -24 -105 -47 -105 -21 0 -24 4 -23 40 1 48 75
278 112 349 15 28 29 55 31 61 8 19 -105 -87 -156 -147 -102 -119 -143 -238
-143 -413 0 -152 32 -243 140 -406 228 -342 404 -467 584 -415 188 55 293 344
316 876 l8 185 -3 -215 c-5 -312 -41 -537 -108 -680 -40 -85 -124 -171 -191
-193 -59 -20 -156 -21 -209 -3 -133 48 -273 182 -439 421 -143 206 -183 373
-144 596 17 92 40 139 102 208 39 44 52 67 66 124 22 85 65 156 127 204 25 21
50 40 55 45 15 12 -41 75 -87 97 -41 20 -60 21 -300 21 l-257 0 -2 -257 -3
-258 -645 -3 -645 -2 -86 -86 -87 -87 -74 7 c-67 7 -75 5 -92 -13 -21 -23 -56
-27 -74 -9 -19 19 -15 66 7 78 28 14 38 13 61 -10 15 -15 35 -20 95 -22 l76
-2 69 69 c44 44 65 72 58 76 -6 4 -72 5 -147 2 -99 -4 -138 -10 -144 -19 -10
-17 -59 -18 -75 -2 -7 7 -12 21 -12 33 0 29 19 45 52 45 17 0 31 -7 38 -20 10
-19 21 -20 325 -20 173 0 315 4 315 9 0 4 -81 88 -180 185 l-180 177 1 140 c2
128 3 141 22 150 31 17 67 -4 67 -39 0 -32 -16 -52 -42 -52 -16 0 -18 -10 -18
-98 l0 -97 80 -80 80 -80 0 98 0 97 185 0 c117 0 185 -4 185 -10 0 -6 -65 -10
-175 -10 l-175 0 0 -97 0 -98 97 -97 98 -98 462 0 463 0 0 250 0 250 -184 0
-185 0 -3 53 -3 52 -167 0 -168 0 -152 153 -153 152 -285 0 -285 0 -230 -230
-230 -230 -272 0 c-262 0 -273 -1 -283 -20 -12 -22 -49 -27 -68 -8 -7 7 -12
24 -12 38 0 14 5 31 12 38 19 19 56 14 70 -8 12 -19 24 -20 278 -20 l266 0 42
43 c23 23 42 46 42 50 0 4 -137 7 -305 7 -294 0 -305 -1 -317 -20 -16 -25 -73
-28 -82 -4 -12 32 -6 63 15 75 18 9 27 7 50 -10 27 -20 39 -21 352 -21 l323 0
42 43 c23 23 42 46 42 50 0 4 -165 7 -368 7 -356 0 -368 -1 -380 -20 -14 -22
-51 -27 -70 -8 -7 7 -12 24 -12 38 0 14 5 31 12 38 18 18 55 14 70 -7 13 -19
32 -20 397 -22 l382 -2 47 46 47 47 -431 0 c-378 0 -433 -2 -444 -16 -8 -9
-25 -14 -44 -12 -29 3 -31 6 -31 43 0 37 2 40 31 43 20 2 36 -4 49 -18 18 -20
27 -20 456 -20 l437 0 46 53 46 52 285 5 284 5 -95 98 -96 97 -529 0 -529 0 0
-40 c0 -33 3 -40 20 -40 11 0 27 -11 36 -25 15 -23 15 -27 0 -50 -18 -27 -36
-31 -67 -15 -19 11 -27 59 -12 73 4 4 5 32 4 62 l-2 55 170 0 171 0 0 81 0 81
-242 -3 c-220 -3 -244 -5 -256 -21 -18 -24 -68 -24 -82 1 -16 31 -12 49 16 67
24 16 26 16 54 -5 28 -20 39 -21 267 -21 131 0 243 -4 250 -8 7 -5 13 -39 15
-87 l3 -80 361 -3 361 -2 259 -260 c150 -150 267 -261 279 -262 11 0 87 0 168
0 l149 2 -3 286 c-3 267 -2 287 15 296 29 16 66 -6 66 -40 0 -32 -16 -52 -42
-52 -16 0 -18 -9 -18 -70 l0 -70 104 0 104 0 4 30 c3 17 1 33 -4 36 -16 10 -8
63 11 74 31 16 49 12 67 -15 15 -23 15 -27 0 -50 -9 -14 -26 -25 -37 -25 -11
0 -19 -6 -18 -12 1 -7 1 -23 0 -35 -1 -22 -4 -23 -116 -23 l-115 0 0 -165 0
-165 443 0 c243 0 457 -4 475 -9 l32 -10 0 120 0 120 -87 -3 -88 -3 -3 -32
c-3 -29 0 -33 20 -33 30 0 48 -17 48 -45 0 -12 -5 -26 -12 -33 -15 -15 -61
-15 -76 0 -13 13 -16 51 -5 62 4 4 8 29 8 54 l0 47 108 3 107 3 0 -125 c0 -97
4 -133 17 -161 17 -35 10 -64 -8 -32 -6 9 -24 25 -42 35 -29 15 -72 17 -482
17 l-450 0 -3 -42 -3 -42 464 -3 464 -3 37 -29 c43 -33 88 -98 113 -165 9 -25
17 -47 19 -49 2 -3 74 38 74 43 0 1 -16 38 -36 81 -81 178 -87 207 -85 427 l2
197 -111 0 -110 0 -2 68 c-6 211 -4 298 5 310 12 15 32 15 58 2z m650 -87 c16
-44 -46 -84 -79 -51 -7 7 -12 25 -12 40 0 49 73 58 91 11z m117 15 c7 -7 12
-21 12 -33 0 -28 -19 -45 -50 -45 -31 0 -50 17 -50 45 0 28 19 45 50 45 14 0
31 -5 38 -12z m1513 -98 c22 -12 26 -59 7 -78 -17 -17 -48 -15 -70 5 -23 21
-23 38 2 63 23 23 33 24 61 10z m-1011 -25 c7 -8 10 -29 8 -47 -5 -28 2 -41
40 -85 l44 -53 264 0 263 0 3 88 3 87 143 3 c90 2 142 -1 142 -7 0 -6 -52 -12
-131 -13 l-130 -3 0 -120 0 -120 328 -3 c180 -1 335 -5 343 -10 8 -4 -140 -9
-329 -12 l-345 -5 0 -39 c-1 -22 -7 -41 -13 -43 -10 -4 -13 17 -13 81 l0 86
-255 0 -255 0 0 -200 0 -200 543 0 c494 0 715 -6 703 -17 -3 -3 -53 -6 -113
-6 l-108 -2 -3 -122 -3 -123 25 0 c47 0 59 -67 15 -90 -38 -21 -87 37 -63 73
5 6 8 70 6 140 l-3 128 -52 -3 -52 -3 -3 -122 c-4 -164 -22 -162 -22 3 l0 125
-52 -3 -53 -3 -3 -122 -3 -123 26 0 c31 0 55 -42 38 -68 -12 -21 -59 -28 -79
-11 -15 12 -19 49 -6 65 4 5 6 67 4 137 l-3 128 -52 -3 -52 -3 -1 -122 c-2
-120 -1 -123 20 -123 28 0 46 -18 46 -45 0 -12 -5 -26 -12 -33 -15 -15 -61
-15 -76 0 -13 13 -16 49 -4 63 4 6 6 67 4 138 l-3 127 -302 -2 -302 -3 -3 -47
-3 -48 -382 0 c-432 0 -426 1 -467 -80 l-21 -40 23 -9 c13 -5 46 -12 74 -15
63 -9 111 -37 120 -71 l6 -25 529 0 529 0 0 -455 0 -455 54 0 c47 0 54 -3 60
-22 3 -13 6 -197 6 -409 l0 -386 31 -7 c73 -14 80 -11 184 94 l100 100 131 0
132 0 4 108 c2 59 0 115 -5 125 -12 25 17 67 46 67 31 0 47 -18 47 -53 0 -23
-6 -31 -30 -40 l-30 -11 0 -99 0 -98 73 3 72 3 5 398 c3 220 2 401 -2 404 -12
7 -9 48 4 61 20 20 66 14 79 -9 16 -31 -3 -69 -36 -69 -23 0 -25 -3 -25 -50
l0 -50 50 0 c38 0 50 4 50 15 0 16 15 20 24 7 3 -5 2 -18 -1 -30 -5 -19 -12
-22 -64 -22 l-59 0 0 -340 0 -340 -227 0 -228 0 -92 -92 -93 -93 0 -201 0
-202 56 -7 c30 -3 134 -5 230 -4 l175 3 103 -104 104 -105 -7 -45 c-5 -40 -9
-45 -34 -48 -35 -4 -57 13 -57 44 0 25 37 57 54 47 20 -12 -17 31 -93 110 -69
71 -79 77 -116 77 l-40 0 93 -93 c50 -51 92 -96 92 -100 0 -23 -38 5 -125 93
l-98 100 -178 0 -179 0 0 210 0 210 -70 0 -70 0 -2 103 c-2 56 -3 242 -3 412
l0 310 -45 0 -45 0 -3 -940 -2 -941 305 -304 c271 -271 325 -330 298 -330 -5
0 -142 134 -305 297 l-298 298 0 -90 0 -90 306 -306 c169 -169 305 -312 303
-318 -2 -6 -137 122 -299 284 -162 162 -298 295 -302 295 -5 0 -8 -39 -8 -87
l0 -88 307 -307 c169 -169 304 -311 300 -315 -4 -4 -139 124 -300 285 -161
161 -295 292 -300 292 -4 0 -7 -37 -7 -82 l0 -83 306 -306 c202 -202 304 -311
299 -319 -5 -8 -107 87 -306 286 l-299 299 0 -90 0 -90 305 -305 c168 -168
305 -312 305 -320 0 -8 -142 127 -315 300 l-315 315 0 1837 0 1838 -548 0
c-608 0 -550 6 -668 -69 -68 -43 -121 -50 -152 -21 -32 31 -14 46 26 23 l31
-18 110 55 c61 30 110 61 111 67 0 16 -42 37 -105 52 -27 7 -60 19 -73 27 -21
14 -22 16 -7 52 9 20 26 47 38 61 46 49 60 51 457 51 l370 0 0 34 0 34 -277 7
c-323 9 -458 3 -517 -24 -39 -17 -126 -100 -126 -120 0 -27 -21 -60 -34 -55
-12 4 -11 14 7 62 17 47 21 88 25 240 l4 182 129 0 c79 0 129 -4 129 -10 0 -6
-46 -10 -119 -10 l-120 0 -3 -167 c-2 -93 -2 -169 -2 -171 1 -1 16 12 35 29
68 64 66 64 487 67 l382 3 0 202 0 203 -59 58 c-32 32 -69 63 -82 70 -27 13
-37 59 -18 82 15 18 53 18 69 -1z m1435 -255 c22 -24 13 -66 -15 -75 -52 -16
-90 36 -55 75 10 11 26 20 35 20 9 0 25 -9 35 -20z m-1896 -84 c7 -8 11 -27 9
-43 -3 -25 -7 -28 -37 -28 -41 0 -64 28 -50 63 10 26 59 31 78 8z m1166 -95
c0 -40 -21 -57 -57 -48 -29 8 -42 41 -27 69 8 15 19 18 47 16 35 -3 37 -5 37
-37z m763 -163 c7 -7 12 -21 12 -33 0 -28 -19 -45 -50 -45 -31 0 -50 17 -50
45 0 28 19 45 50 45 14 0 31 -5 38 -12z m-3950 -174 c12 -8 22 -26 22 -38 0
-54 -77 -64 -95 -12 -8 24 -6 31 14 47 28 23 31 23 59 3z m3540 -126 c18 -18
14 -53 -8 -73 -17 -15 -24 -16 -45 -7 -24 11 -30 27 -25 62 4 29 55 41 78 18z
m-1878 -128 c21 -7 18 -8 -18 -9 -46 -1 -112 -24 -124 -44 -10 -15 -10 -47 0
-46 18 3 32 -2 32 -12 0 -5 11 -27 25 -47 31 -46 32 -93 3 -127 -24 -26 -121
-66 -160 -64 -14 0 -4 6 25 15 26 8 50 21 53 29 3 8 -1 46 -10 84 -9 38 -16
88 -16 110 0 56 39 98 100 110 56 11 59 11 90 1z m1180 -1230 l0 -1130 -155 0
-155 0 0 -145 c0 -137 1 -145 19 -145 25 0 51 -26 51 -50 0 -11 -11 -27 -25
-36 -37 -24 -75 -6 -75 35 0 16 3 32 8 34 4 3 6 73 4 156 l-3 151 -67 0 c-55
0 -71 -4 -85 -20 -30 -35 -87 -16 -87 30 0 46 57 65 87 30 14 -16 30 -20 85
-20 l68 0 0 153 0 152 155 155 155 155 0 422 0 423 -45 0 -45 0 0 -301 0 -301
-142 -145 c-139 -140 -143 -145 -140 -183 3 -31 -1 -41 -18 -50 -11 -6 -30 -8
-40 -5 -44 14 -47 77 -4 92 12 4 91 75 175 158 l152 150 -4 185 c-1 102 -2
238 -1 303 l2 117 55 0 55 0 0 370 0 371 -407 -3 -408 -3 -55 -27 c-69 -34
-93 -70 -120 -177 -27 -106 -64 -173 -94 -169 -31 4 -31 30 2 79 16 24 39 73
51 109 42 119 77 158 175 192 46 15 95 17 464 18 l412 0 0 -1130z m-1186 886
c-5 -22 -3 -24 18 -20 12 3 -8 -8 -46 -24 -63 -26 -96 -52 -66 -52 6 0 19 -20
30 -44 10 -24 27 -46 37 -49 16 -4 16 -5 1 -6 -10 0 -27 8 -37 18 -24 24 -31
18 -32 -33 -1 -23 -3 -33 -6 -23 -5 20 -14 22 -33 5 -7 -7 -4 0 8 16 43 56 24
100 -48 115 -46 10 -54 9 -80 -11 -17 -12 -30 -25 -30 -29 0 -4 22 -18 50 -30
27 -12 48 -24 46 -26 -6 -6 -106 39 -106 48 0 17 -34 9 -57 -13 -16 -15 -23
-33 -24 -62 0 -23 -4 -61 -8 -86 l-8 -45 -2 40 -1 40 -20 -42 c-10 -24 -22
-43 -25 -43 -3 0 -1 8 4 18 5 10 19 56 30 102 20 80 49 130 76 130 6 0 33 17
59 37 41 31 50 35 67 25 26 -16 102 -15 144 2 19 8 40 26 47 40 14 33 20 33
12 2z m127 -289 l-3 -88 43 -57 c24 -31 50 -63 58 -71 14 -12 14 -13 -1 -8
-16 6 -18 -1 -20 -46 l-1 -52 -6 62 c-5 55 -11 67 -42 98 l-35 36 -28 -43
c-23 -36 -27 -50 -23 -88 5 -43 5 -43 -5 -12 -21 64 -54 13 -74 -112 -6 -45
-13 -67 -13 -51 -2 28 -3 27 -32 -25 -31 -58 -30 -31 2 31 10 20 25 67 34 105
10 44 26 82 45 106 17 20 30 39 30 42 0 12 -88 6 -97 -6 -6 -7 -13 -25 -17
-39 -3 -15 -13 -30 -23 -33 -16 -6 -16 -6 0 12 16 18 24 52 11 52 -3 0 -26
-12 -52 -26 -26 -14 -38 -18 -27 -9 45 38 106 66 161 75 32 5 62 14 68 20 7 7
10 51 8 116 -2 104 -2 105 20 102 22 -3 22 -6 19 -91z m2307 -80 c4 -34 -13
-57 -42 -57 -29 0 -46 18 -46 50 0 36 8 41 50 38 30 -3 35 -7 38 -31z m-60
-1619 c7 -7 12 -21 12 -33 0 -28 -19 -45 -50 -45 -31 0 -50 17 -50 45 0 28 19
45 50 45 14 0 31 -5 38 -12z m-320 -1060 c7 -7 12 -25 12 -40 0 -49 -73 -58
-91 -11 -16 44 46 84 79 51z m-7 -208 c22 -12 26 -59 7 -78 -7 -7 -21 -12 -33
-12 -29 0 -45 19 -45 52 0 39 34 57 71 38z m7 -222 c17 -17 15 -63 -3 -78 -20
-16 -62 -5 -75 21 -24 43 43 92 78 57z m0 -220 c7 -7 12 -21 12 -33 0 -28 -19
-45 -50 -45 -31 0 -50 17 -50 45 0 28 19 45 50 45 14 0 31 -5 38 -12z m0 -210
c7 -7 12 -24 12 -38 0 -31 -17 -50 -45 -50 -28 0 -45 19 -45 50 0 31 17 50 45
50 12 0 26 -5 33 -12z"/>
<path d="M10310 8295 c-10 -12 -10 -18 0 -30 7 -8 18 -15 25 -15 7 0 18 7 25
15 10 12 10 18 0 30 -7 8 -18 15 -25 15 -7 0 -18 -7 -25 -15z"/>
<path d="M7290 8255 c-18 -21 -5 -47 22 -43 24 3 32 36 13 50 -15 11 -21 10
-35 -7z"/>
<path d="M10531 8136 c-16 -20 -3 -46 24 -46 13 0 26 7 29 16 7 19 -10 44 -29
44 -7 0 -18 -6 -24 -14z"/>
<path d="M9461 8106 c-15 -18 -4 -46 19 -46 28 0 45 27 30 45 -16 19 -34 19
-49 1z"/>
<path d="M9694 8015 c-8 -21 2 -45 19 -45 20 0 40 27 33 45 -7 19 -45 20 -52
0z"/>
<path d="M7522 7938 c-14 -14 2 -48 22 -48 20 0 37 25 30 44 -7 19 -35 21 -52
4z"/>
<path d="M7168 7759 c-22 -12 -23 -23 -3 -43 22 -22 47 -9 43 22 -3 29 -16 36
-40 21z"/>
<path d="M10240 7675 c-18 -21 -5 -47 22 -43 26 3 37 36 16 49 -18 12 -24 11
-38 -6z"/>
<path d="M7160 7635 c-11 -13 -11 -19 3 -32 21 -21 45 -11 43 19 -1 27 -28 35
-46 13z"/>
<path d="M8510 7555 c-17 -21 -5 -45 24 -45 28 0 37 17 24 43 -11 21 -31 22
-48 2z"/>
<path d="M7167 7518 c-21 -11 -21 -22 -2 -42 20 -20 45 -10 45 19 0 27 -19 37
-43 23z"/>
<path d="M7160 7395 c-11 -13 -11 -19 3 -32 21 -21 49 -9 45 19 -4 28 -30 35
-48 13z"/>
<path d="M10442 7246 c-53 -56 -84 -111 -97 -175 -6 -26 -4 -31 6 -25 120 76
189 128 189 142 0 9 -10 39 -23 66 l-22 48 -53 -56z"/>
<path d="M8147 6935 c-21 -21 -11 -45 20 -45 21 0 24 4 21 27 -4 32 -20 39
-41 18z"/>
<path d="M8144 6766 c-9 -24 3 -46 26 -46 17 0 21 5 18 27 -3 31 -34 44 -44
19z"/>
<path d="M10941 8236 c-16 -20 -3 -46 24 -46 13 0 26 7 29 16 7 19 -10 44 -29
44 -7 0 -18 -6 -24 -14z"/>
<path d="M11067 8233 c-13 -12 -7 -41 10 -47 21 -8 48 17 40 38 -6 16 -38 22
-50 9z"/>
<path d="M12590 8125 c-16 -19 -6 -45 18 -45 28 0 43 20 31 42 -12 22 -32 23
-49 3z"/>
<path d="M11564 8105 c-7 -18 12 -45 32 -45 16 0 33 30 27 48 -7 17 -52 15
-59 -3z"/>
<path d="M12377 7218 c-21 -11 -22 -32 -2 -48 12 -10 18 -10 30 0 33 27 8 69
-28 48z"/>
<path d="M12502 7218 c-31 -31 0 -69 35 -43 14 11 16 18 7 31 -14 23 -27 27
-42 12z"/>
<path d="M12762 7218 c-16 -16 -15 -33 4 -48 22 -19 54 12 38 37 -14 22 -27
26 -42 11z"/>
<path d="M13053 6473 c-7 -2 -13 -16 -13 -29 0 -19 5 -24 25 -24 30 0 43 24
25 45 -13 16 -17 17 -37 8z"/>
<path d="M12863 5874 c-8 -20 21 -49 41 -41 9 4 16 18 16 32 0 20 -5 25 -25
25 -14 0 -28 -7 -32 -16z"/>
<path d="M13007 4755 c-30 -30 5 -65 40 -40 14 11 16 18 7 31 -15 25 -29 27
-47 9z"/>
<path d="M13004 7856 c-10 -26 4 -48 28 -44 17 2 23 10 23 28 0 18 -6 26 -23
28 -13 2 -25 -3 -28 -12z"/>
<path d="M11116 7777 c-23 -17 -11 -47 19 -47 27 0 40 26 24 46 -14 17 -21 17
-43 1z"/>
<path d="M12271 7707 c-17 -21 -3 -49 23 -45 15 2 21 10 21 28 0 28 -26 38
-44 17z"/>
<path d="M13042 7518 c-16 -16 -15 -33 3 -48 12 -10 18 -10 30 0 20 16 19 46
-1 54 -20 8 -18 8 -32 -6z"/>
<path d="M9102 7341 c-23 -14 -10 -46 18 -46 20 0 25 5 25 25 0 26 -20 36 -43
21z"/>
<path d="M12623 7204 c-7 -20 22 -45 43 -37 8 3 14 16 14 29 0 19 -5 24 -25
24 -15 0 -28 -7 -32 -16z"/>
<path d="M10682 6903 c23 -67 38 -81 38 -35 -1 15 -14 42 -31 62 l-30 35 23
-62z"/>
<path d="M11822 5197 l-142 -142 0 -148 0 -147 145 0 145 0 0 290 c0 160 -1
290 -3 290 -1 0 -66 -64 -145 -143z"/>
<path d="M11527 5298 c-6 -18 11 -48 27 -48 8 0 19 7 26 15 10 12 10 18 0 30
-15 18 -47 20 -53 3z"/>
<path d="M11444 4766 c-10 -26 4 -48 28 -44 16 2 23 10 23 28 0 18 -7 26 -23
28 -13 2 -25 -3 -28 -12z"/>
<path d="M11674 4415 c-8 -21 2 -45 19 -45 20 0 40 27 33 45 -7 19 -45 20 -52
0z"/>
<path d="M13171 6396 c-16 -20 -3 -46 24 -46 13 0 26 7 29 16 7 19 -10 44 -29
44 -7 0 -18 -6 -24 -14z"/>
<path d="M13122 4758 c-17 -17 -15 -36 7 -47 25 -14 50 13 35 37 -14 21 -27
25 -42 10z"/>
<path d="M12804 3696 c-15 -12 -17 -19 -8 -32 15 -25 29 -27 48 -9 12 12 13
21 6 36 -13 23 -20 24 -46 5z"/>
<path d="M12801 3476 c-15 -18 -3 -46 20 -46 24 0 42 33 27 48 -16 16 -33 15
-47 -2z"/>
<path d="M12796 3254 c-7 -19 10 -44 30 -44 16 0 33 30 27 48 -7 18 -50 15
-57 -4z"/>
<path d="M12803 3053 c-18 -7 -16 -38 3 -53 12 -11 18 -10 32 4 25 25 -2 63
-35 49z"/>
<path d="M12800 2825 c-10 -12 -10 -18 0 -30 17 -20 37 -19 49 3 18 34 -24 57
-49 27z"/>
</g>
</svg>
